<?xml version="1.0" standalone="no"?>
<!DOCTYPE svg PUBLIC "-//W3C//DTD SVG 1.1//EN" "http://www.w3.org/Graphics/SVG/1.1/DTD/svg11.dtd" >
<svg xmlns="http://www.w3.org/2000/svg">
<metadata></metadata>
<defs>
<font id="plutocond_medium" horiz-adv-x="1044" >
<font-face units-per-em="2048" ascent="1536" descent="-512" />
<missing-glyph horiz-adv-x="440" />
<glyph horiz-adv-x="0" />
<glyph horiz-adv-x="682" />
<glyph unicode=" "  horiz-adv-x="440" />
<glyph unicode="&#x09;" horiz-adv-x="440" />
<glyph unicode="&#xa0;" horiz-adv-x="440" />
<glyph unicode="!" horiz-adv-x="591" d="M139 137q0 78 40.5 121t115.5 43t117.5 -43t42.5 -121q0 -79 -42 -121.5t-118 -42.5q-75 0 -115.5 42.5t-40.5 121.5zM166 1393h258l-39 -895h-182z" />
<glyph unicode="&#x22;" horiz-adv-x="860" d="M137 1393h201l-12 -516h-179zM522 1393h201l-12 -516h-181z" />
<glyph unicode="#" horiz-adv-x="1234" d="M78 315v197h186l78 362h-143v197h186l70 322h188v-19l-65 -303h227l69 322h189v-19l-66 -303h162v-197h-203l-77 -362h159v-197h-200l-68 -315h-188v20l61 295h-225l-68 -315h-190v20l63 295h-145zM459 512h227l78 362h-227z" />
<glyph unicode="$" d="M61 995q0 153 99 266.5t278 141.5v174h154v-168q102 -4 203 -32t168 -66l-74 -232q-129 82 -297 92v-364l74 -25q162 -55 238.5 -141.5t76.5 -224.5q0 -168 -105 -286t-284 -144v-250h-154v248q-106 8 -202.5 39t-155.5 67l59 244q137 -99 299 -113v383l-104 33 q-273 87 -273 358zM319 1012q0 -109 119 -154v299q-119 -37 -119 -145zM592 233q121 42 121 166q0 55 -29 91t-92 63v-320z" />
<glyph unicode="%" horiz-adv-x="1601" d="M72 1042q0 173 89.5 272t233.5 99q145 0 235.5 -99t90.5 -272q0 -174 -90.5 -271t-235.5 -97t-234 97t-89 271zM260 1042q0 -87 36.5 -131.5t98.5 -44.5t98.5 44.5t36.5 131.5t-36.5 132t-98.5 45t-98.5 -45t-36.5 -132zM387 0v20l606 1373h221v-19l-604 -1374h-223z M883 346q0 175 89.5 274t233.5 99q145 0 235.5 -99.5t90.5 -273.5q0 -173 -90.5 -269.5t-235.5 -96.5t-234 96.5t-89 269.5zM1071 346q0 -86 36.5 -130t98.5 -44t98.5 44t36.5 130q0 88 -36.5 133t-98.5 45t-98.5 -45t-36.5 -133z" />
<glyph unicode="&#x26;" horiz-adv-x="1372" d="M98 354q0 123 70 210t197 155q-71 83 -105.5 158.5t-34.5 175.5q0 150 104.5 255t291.5 105q183 0 288 -96t105 -266q0 -243 -291 -383l-4 -2l213 -228q113 146 184 355l193 -136q-80 -215 -222 -387l220 -235v-37h-301l-97 106q-176 -124 -397 -124q-189 0 -301.5 103 t-112.5 271zM362 389q0 -82 56 -132t147 -50q95 0 195 65l-256 289q-72 -37 -107 -76t-35 -96zM477 1032q0 -97 101 -213l51 25q133 62 133 188q0 66 -39.5 111t-101.5 45q-64 0 -104 -44.5t-40 -111.5z" />
<glyph unicode="'" horiz-adv-x="475" d="M137 1393h201l-12 -516h-179z" />
<glyph unicode="(" horiz-adv-x="591" d="M96 537q0 170 28.5 329t74 274.5t90 196t88.5 129.5l145 -86q-80 -134 -140 -352.5t-60 -492.5q0 -271 60 -490.5t140 -353.5l-145 -86q-43 48 -88.5 129t-90.5 197t-73.5 276t-28.5 330z" />
<glyph unicode=")" horiz-adv-x="591" d="M68 -309q81 132 140.5 352t59.5 492q0 275 -59.5 494t-140.5 351l145 86q44 -49 89.5 -129.5t90 -196t73 -274.5t28.5 -329t-28.5 -330t-73 -276t-90 -197t-89.5 -129z" />
<glyph unicode="*" horiz-adv-x="964" d="M96 1149q2 44 38 73.5t89 12.5q79 -30 197 -123q-31 133 -31 246q0 47 27 73.5t63 26.5q38 0 66 -26.5t28 -73.5q0 -79 -34 -236q118 81 211 109q53 16 85.5 -13t32.5 -71q0 -33 -19.5 -58t-57.5 -34q-92 -26 -228 -33q43 -37 94.5 -94t81.5 -99q32 -54 2.5 -98.5 t-82.5 -44.5q-48 0 -77 45q-27 39 -58.5 109t-44.5 121q-42 -141 -96 -222q-36 -53 -84 -53q-56 0 -83.5 48t11.5 104q88 118 156 174q-78 7 -219 49q-33 9 -50.5 33.5t-17.5 54.5z" />
<glyph unicode="+" d="M102 516v207h318v383h203v-383h317v-207h-317v-381h-203v381h-318z" />
<glyph unicode="," horiz-adv-x="542" d="M115 129q0 82 39.5 126t113.5 44q73 0 115.5 -46.5t42.5 -123.5q0 -102 -46.5 -247t-96.5 -234l-144 59l76 270q-100 24 -100 152z" />
<glyph unicode="-" horiz-adv-x="985" d="M141 516v207h703v-207h-703z" />
<glyph unicode="." horiz-adv-x="544" d="M115 137q0 78 41 121t116 43q74 0 116 -43t42 -121q0 -79 -42 -121.5t-116 -42.5q-75 0 -116 42.5t-41 121.5z" />
<glyph unicode="/" horiz-adv-x="894" d="M35 0v20l606 1373h219v-19l-604 -1374h-221z" />
<glyph unicode="0" horiz-adv-x="1286" d="M123 694q0 220 56.5 379.5t174 249.5t287.5 90q256 0 389 -192t133 -527q0 -218 -56.5 -376.5t-175.5 -248t-290 -89.5q-253 0 -385.5 191.5t-132.5 522.5zM373 694q0 -473 268 -473q272 0 272 473q0 480 -272 480q-268 0 -268 -480z" />
<glyph unicode="1" horiz-adv-x="915" d="M20 1075l515 318h190v-1393h-260v1083l-344 -206z" />
<glyph unicode="2" horiz-adv-x="1167" d="M104 920q5 227 127 360t340 133q111 0 198.5 -34.5t142.5 -96t83.5 -142t28.5 -175.5q0 -129 -57 -234t-187 -233l-278 -269h553v-229h-918v197l455 424q88 85 127 159.5t39 165.5q0 104 -52 166t-151 62q-105 0 -159 -81.5t-56 -218.5z" />
<glyph unicode="3" horiz-adv-x="1138" d="M104 68l64 219q160 -84 321 -84q117 0 192 59t75 158q0 180 -230 180h-278v229h278q91 0 141 47.5t50 120.5q0 94 -65.5 144.5t-170.5 50.5q-87 0 -177.5 -30t-141.5 -60l-58 223q68 32 180 60t216 28q234 0 355.5 -98t121.5 -283q0 -108 -54 -192.5t-141 -112.5 q118 -43 178 -125t60 -221q0 -188 -134 -294.5t-386 -106.5q-113 0 -219 28.5t-177 59.5z" />
<glyph unicode="4" horiz-adv-x="1251" d="M59 270v172l566 951h344v-928h207v-195h-207v-270h-260v270h-650zM319 465h390v665z" />
<glyph unicode="5" horiz-adv-x="1132" d="M94 74l64 217q157 -88 319 -88q120 0 198.5 61.5t78.5 184.5q0 204 -265 204h-319l-12 13l53 727h768v-230h-549l-22 -315h116q494 0 494 -393q0 -237 -139 -356t-375 -119q-225 0 -410 94z" />
<glyph unicode="6" horiz-adv-x="1243" d="M121 698q0 325 144.5 520t402.5 195q127 0 240 -36t173 -77l-69 -213q-54 40 -139.5 71.5t-172.5 31.5q-299 0 -319 -426q124 164 324 164q208 0 320 -119.5t112 -333.5q0 -223 -132.5 -359t-340.5 -136q-256 0 -399.5 194.5t-143.5 523.5zM393 530q23 -145 88 -228 t172 -83q99 0 163.5 74t64.5 182q0 116 -61 177t-163 61q-159 0 -264 -183z" />
<glyph unicode="7" horiz-adv-x="1003" d="M63 1163v230h887v-185l-475 -1208h-287v25l474 1138h-599z" />
<glyph unicode="8" horiz-adv-x="1255" d="M121 381q0 144 59.5 227.5t186.5 118.5q-100 28 -152.5 111t-52.5 194q0 185 119.5 283t347.5 98q226 0 345.5 -98t119.5 -283q0 -112 -53 -194.5t-154 -110.5q129 -35 189.5 -118.5t60.5 -227.5q0 -187 -132 -294t-376 -107q-245 0 -376.5 107t-131.5 294zM383 420 q0 -101 67.5 -164t178.5 -63q110 0 177.5 63.5t67.5 163.5q0 95 -61.5 154t-185.5 59q-121 0 -182.5 -59t-61.5 -154zM418 1008q0 -83 52 -140t157 -57q106 0 158.5 57t52.5 140q0 93 -55.5 144.5t-153.5 51.5q-99 0 -155 -51.5t-56 -144.5z" />
<glyph unicode="9" horiz-adv-x="1243" d="M106 918q0 223 132.5 359t339.5 136q257 0 400.5 -195t143.5 -524q0 -214 -63 -374t-188 -250t-298 -90q-126 0 -238 35.5t-175 76.5l71 213q54 -40 139 -71t173 -31q297 0 317 424q-123 -162 -319 -162q-208 0 -321.5 119.5t-113.5 333.5zM362 918q0 -117 61 -178.5 t165 -61.5q49 0 93 18t76.5 48t54 57.5t38.5 58.5q-23 146 -88.5 230t-171.5 84q-99 0 -163.5 -74t-64.5 -182z" />
<glyph unicode=":" horiz-adv-x="591" d="M139 133q0 76 40 118t114 42q73 0 114.5 -42t41.5 -118q0 -77 -41.5 -119.5t-114.5 -42.5q-74 0 -114 42t-40 120zM139 942q0 76 40 118t114 42q73 0 114.5 -42t41.5 -118q0 -77 -41.5 -119.5t-114.5 -42.5q-74 0 -114 42t-40 120z" />
<glyph unicode=";" horiz-adv-x="595" d="M139 942q0 76 40 118t114 42q73 0 114.5 -42t41.5 -118q0 -77 -41.5 -119.5t-114.5 -42.5q-74 0 -114 42t-40 120zM147 123q0 80 39 123t111 43q71 0 112.5 -45t41.5 -121q0 -99 -45.5 -240t-94.5 -229l-141 59l76 262q-99 23 -99 148z" />
<glyph unicode="&#x3c;" d="M104 514v203l820 395h16v-201l-631 -293l631 -288v-203h-16z" />
<glyph unicode="=" d="M104 229v207h836v-207h-836zM104 803v207h836v-207h-836z" />
<glyph unicode="&#x3e;" d="M104 127v203l633 288l-633 293v201h19l817 -395v-203l-817 -387h-19z" />
<glyph unicode="?" horiz-adv-x="870" d="M74 1264q149 149 362 149q161 0 255.5 -93.5t94.5 -234.5q0 -60 -14 -112.5t-40.5 -95.5t-49.5 -70.5t-57 -61.5l-95 -90q-25 -25 -33.5 -35t-16 -27t-7.5 -40q0 -25 6 -55h-211q-20 66 -20 118q0 51 23.5 90t76.5 82l80 74q31 30 48.5 50.5t33.5 58t16 80.5 q0 65 -41 105t-112 40q-128 0 -230 -135zM219 137q0 79 40 121.5t116 42.5q75 0 117.5 -43t42.5 -121q0 -79 -42 -121.5t-118 -42.5t-116 42t-40 122z" />
<glyph unicode="@" horiz-adv-x="1742" d="M88 539q0 209 59.5 384t165 295.5t254 187.5t322.5 67q233 0 411 -101t275.5 -286.5t97.5 -428.5q0 -134 -21 -240.5t-59 -179.5t-92 -121.5t-117.5 -70.5t-138.5 -22q-84 0 -129.5 25.5t-75.5 84.5q-73 -108 -252 -108q-169 0 -274.5 138.5t-105.5 356.5 q0 221 105.5 361.5t274.5 140.5q85 0 142.5 -19.5t93.5 -68.5v72h248v-678q0 -75 11 -101t50 -26q61 0 108.5 116t47.5 326q0 306 -158.5 478.5t-441.5 172.5q-135 0 -247.5 -48.5t-195 -141.5t-128.5 -237.5t-46 -327.5q0 -365 164 -561.5t453 -196.5q163 0 301 78l59 -162 q-163 -94 -360 -94q-376 0 -588.5 246.5t-212.5 689.5zM662 520q0 -125 56.5 -201.5t149.5 -76.5q47 0 88.5 21.5t67.5 55.5v410q-24 32 -66 53t-90 21q-94 0 -150 -78t-56 -205z" />
<glyph unicode="A" horiz-adv-x="1288" d="M29 0l467 1393h303l454 -1393h-260l-88 289h-526l-90 -289h-260zM444 483h398l-195 650z" />
<glyph unicode="B" horiz-adv-x="1298" d="M186 0v1393h506q199 0 306.5 -92t107.5 -277q0 -108 -47 -184.5t-131 -114.5q131 -30 201.5 -115.5t70.5 -224.5q0 -183 -110.5 -284t-317.5 -101h-586zM449 227h288q191 0 191 174q0 187 -211 187h-268v-361zM449 831h204q94 0 141.5 43.5t47.5 126.5q0 85 -44.5 124.5 t-138.5 39.5h-210v-334z" />
<glyph unicode="C" horiz-adv-x="1302" d="M113 694q0 167 46 303t127.5 227t193.5 140t243 49q231 0 355 -121.5t128 -363.5l-235 -47q-3 147 -67.5 217.5t-190.5 70.5q-153 0 -242.5 -125.5t-89.5 -349.5q0 -229 96 -350t268 -121q93 0 188.5 51.5t170.5 124.5l104 -215q-85 -88 -215 -146t-270 -58 q-131 0 -243 49t-193.5 139t-127.5 225.5t-46 300.5z" />
<glyph unicode="D" horiz-adv-x="1429" d="M186 0v1393h519q132 0 243.5 -46.5t193.5 -133.5t128.5 -220t46.5 -299q0 -165 -46.5 -297.5t-128.5 -218.5t-193.5 -132t-243.5 -46h-519zM449 229h223q176 0 276.5 121t100.5 344q0 226 -100.5 347.5t-276.5 121.5h-223v-934z" />
<glyph unicode="E" horiz-adv-x="1243" d="M186 0v1393h944v-232h-694v-332h568v-227h-568v-373h694v-229h-944z" />
<glyph unicode="F" horiz-adv-x="1171" d="M186 0v1393h910v-232h-660v-426h565v-231h-565v-504h-250z" />
<glyph unicode="G" horiz-adv-x="1376" d="M109 694q0 166 49 303t134.5 227t200.5 139.5t246 49.5q278 0 461 -168l-108 -209q-152 133 -322 133q-182 0 -286.5 -125t-104.5 -350q0 -229 103.5 -350t275.5 -121q148 0 241 72v287h-311v227h557v-664q-86 -70 -229 -117.5t-277 -47.5q-131 0 -246 49t-200.5 139 t-134.5 226t-49 300z" />
<glyph unicode="H" horiz-adv-x="1509" d="M186 0v1393h263v-576h612v576h262v-1393h-262v588h-612v-588h-263z" />
<glyph unicode="I" horiz-adv-x="632" d="M186 0v1393h263v-1393h-263z" />
<glyph unicode="J" horiz-adv-x="1159" d="M35 467l254 25q6 -145 58 -212t159 -67q217 0 217 291v889h264v-885q0 -119 -30 -215.5t-89 -167.5t-153 -109.5t-215 -38.5q-221 0 -339 129.5t-126 360.5z" />
<glyph unicode="K" horiz-adv-x="1402" d="M186 0v1393h263v-590h219l319 590h266v-39l-395 -674q25 -34 72 -122.5t86 -160.5t97 -131t114 -59q55 0 112 31l29 -205q-90 -53 -207 -53q-70 0 -131.5 33.5t-104.5 84.5t-85 120t-71 131.5t-64 126.5t-64 99h-192v-575h-263z" />
<glyph unicode="L" horiz-adv-x="1091" d="M186 0v1393h263v-1164h608v-229h-871z" />
<glyph unicode="M" horiz-adv-x="1710" d="M186 0v1393h256l412 -611l414 611h256v-1393h-262v956l-383 -563h-48l-382 563v-956h-263z" />
<glyph unicode="N" horiz-adv-x="1505" d="M186 0v1393h226l645 -955v955h264v-1393h-231l-644 952v-952h-260z" />
<glyph unicode="O" horiz-adv-x="1439" d="M111 694q0 211 74 374t212 254t320 91q184 0 323.5 -91t214 -254t74.5 -374q0 -209 -74.5 -371t-214 -252.5t-323.5 -90.5q-182 0 -320 90.5t-212 252.5t-74 371zM369 694q0 -229 94.5 -348t253.5 -119q163 0 258.5 118.5t95.5 348.5q0 232 -95 351.5t-259 119.5 q-160 0 -254 -119.5t-94 -351.5z" />
<glyph unicode="P" horiz-adv-x="1269" d="M186 0v1393h574q88 0 165.5 -31t138 -91.5t95.5 -158.5t35 -223q0 -113 -35.5 -208.5t-95 -158t-138 -97t-165.5 -34.5h-311v-391h-263zM449 621h253q95 0 160.5 73.5t65.5 194.5q0 130 -64.5 202t-161.5 72h-253v-542z" />
<glyph unicode="Q" horiz-adv-x="1441" d="M113 694q0 211 74 374t212 254t320 91q184 0 323.5 -91t214 -254t74.5 -374q0 -234 -94 -408.5t-262 -252.5q83 -89 122 -119q78 -61 158 -61q103 0 172 30l27 -213q-98 -39 -217 -39q-79 0 -154 31t-130.5 78t-100 94.5t-83 90.5t-58.5 55q-180 2 -316 93t-209 252 t-73 369zM367 694q0 -229 96 -348t256 -119q164 0 260 119t96 348q0 232 -96 350.5t-260 118.5q-160 0 -256 -119t-96 -350z" />
<glyph unicode="R" horiz-adv-x="1376" d="M186 0v1393h582q187 0 303.5 -125t116.5 -330q0 -166 -94.5 -281t-243.5 -143q18 -21 56 -67.5t59.5 -72t57 -62.5t62 -56.5t59.5 -34t64 -14.5q60 0 125 35l29 -209q-38 -22 -99.5 -37.5t-117.5 -15.5q-78 0 -155.5 44t-140.5 112.5t-117.5 138.5t-109 137t-92.5 94h-81 v-506h-263zM449 713h249q98 0 160 60t62 163q0 110 -61 168.5t-161 58.5h-249v-450z" />
<glyph unicode="S" horiz-adv-x="1134" d="M109 995q0 177 129 296.5t356 119.5q114 0 228.5 -29t189.5 -71l-74 -232q-68 43 -160 69t-176 26q-115 0 -175 -44t-60 -118q0 -61 33.5 -97t101.5 -57l211 -72q162 -55 239.5 -143.5t77.5 -226.5q0 -190 -131.5 -313t-351.5 -123q-119 0 -235 33.5t-185 76.5l59 244 q72 -50 163.5 -82.5t185.5 -32.5q100 0 162.5 44.5t62.5 135.5q0 64 -40 101.5t-132 66.5l-207 66q-272 90 -272 362z" />
<glyph unicode="T" horiz-adv-x="1126" d="M57 1130v263h1010v-263h-367v-1130h-262v1130h-381z" />
<glyph unicode="U" horiz-adv-x="1427" d="M170 561v832h262v-815q0 -357 279 -357q282 0 282 359v813h262v-832q0 -125 -32.5 -229t-97 -184.5t-170.5 -125.5t-244 -45q-270 0 -405.5 155.5t-135.5 428.5z" />
<glyph unicode="V" horiz-adv-x="1310" d="M35 1393h280l336 -1112l346 1112h283l-467 -1393h-324z" />
<glyph unicode="W" horiz-adv-x="1947" d="M35 1393h278l338 -1098l211 637l-141 461h280l306 -1057l329 1057h283l-467 -1393h-283l-192 623l-207 -623h-281z" />
<glyph unicode="X" horiz-adv-x="1308" d="M57 0v20l414 674l-414 680v19h295l301 -525l301 525h297v-19l-415 -680l415 -674v-20h-301l-297 522l-299 -522h-297z" />
<glyph unicode="Y" horiz-adv-x="1206" d="M14 1374v19h289l301 -594l301 594h287v-19l-461 -815v-559h-256v557z" />
<glyph unicode="Z" horiz-adv-x="1148" d="M111 0v184l594 979h-594v230h927v-185l-594 -979h594v-229h-927z" />
<glyph unicode="[" horiz-adv-x="653" d="M164 -385v1839h416v-207h-211v-1425h211v-207h-416z" />
<glyph unicode="\" horiz-adv-x="894" d="M35 1374v19h219l606 -1373v-20h-221z" />
<glyph unicode="]" horiz-adv-x="653" d="M72 -178h213v1425h-213v207h415v-1839h-415v207z" />
<glyph unicode="^" d="M98 795v22l324 576h192l326 -576v-22h-233l-189 391l-190 -391h-230z" />
<glyph unicode="_" horiz-adv-x="1212" d="M172 -68h870v-206h-870v206z" />
<glyph unicode="`" d="M324 1518h254l141 -308h-213z" />
<glyph unicode="a" horiz-adv-x="1259" d="M96 532q0 258 113 408t319 150q75 0 146 -25t114 -76v82h259v-768q0 -102 61 -102q36 0 90 35l10 -209q-88 -47 -204 -47q-82 0 -130 29.5t-67 103.5q-47 -63 -122 -97t-167 -34q-195 0 -308.5 144t-113.5 406zM358 532q0 -151 64.5 -237t177.5 -86q55 0 104.5 32 t83.5 76v447q-80 96 -188 96q-114 0 -178 -87t-64 -241z" />
<glyph unicode="b" horiz-adv-x="1200" d="M154 0v1454h258v-469q105 105 276 105q192 0 305 -145.5t113 -407.5t-113 -409.5t-305 -147.5q-180 0 -276 110v-90h-258zM412 301q32 -39 82 -65.5t106 -26.5q114 0 179 86t65 237q0 154 -65 241t-179 87q-57 0 -107.5 -27t-80.5 -67v-465z" />
<glyph unicode="c" horiz-adv-x="1069" d="M92 532q0 255 132 411.5t349 156.5q368 0 422 -373l-200 -74q-9 104 -59 159.5t-138 55.5q-112 0 -176 -89t-64 -238q0 -338 260 -338q129 0 265 119l102 -203q-174 -148 -397 -148q-248 0 -372 151t-124 410z" />
<glyph unicode="d" horiz-adv-x="1259" d="M96 537q0 262 114.5 407.5t307.5 145.5q167 0 273 -103v467h256v-1147q0 -51 14 -78.5t51 -27.5q35 0 86 35l10 -209q-34 -20 -91.5 -33.5t-115.5 -13.5q-148 0 -192 131q-100 -131 -291 -131q-193 0 -307.5 147.5t-114.5 409.5zM358 532q0 -150 64.5 -236.5t175.5 -86.5 q58 0 108.5 27t84.5 67v463q-33 40 -83.5 67t-109.5 27q-112 0 -176 -87t-64 -241z" />
<glyph unicode="e" horiz-adv-x="1075" d="M92 532q0 164 58 292.5t167.5 202t253.5 73.5q105 0 185.5 -33.5t128.5 -93t72 -135.5t24 -168q0 -107 -29 -217h-606q17 -260 266 -260q137 0 262 104l99 -195q-153 -131 -402 -131q-120 0 -212.5 42t-150.5 117.5t-87 177t-29 224.5zM360 653h379q6 24 6 54 q0 84 -45.5 128t-128.5 44q-94 0 -148.5 -61.5t-62.5 -164.5z" />
<glyph unicode="f" horiz-adv-x="808" d="M66 813v205h163v96q0 361 322 361q132 0 231 -56l-57 -227q-64 51 -131 51q-107 0 -107 -119v-106h267v-205h-267v-813h-258v813h-163z" />
<glyph unicode="g" horiz-adv-x="1202" d="M98 573q0 237 116 377t312 140q161 0 265 -107v88h258v-997q0 -123 -35.5 -216.5t-99.5 -150t-147.5 -85t-184.5 -28.5q-90 0 -172 18t-120 34t-85 41l57 227q148 -90 291 -90q52 0 91.5 9.5t74.5 32t53.5 66t18.5 107.5v117q-101 -95 -265 -95q-196 0 -312 139t-116 373 zM360 573q0 -130 64.5 -207t177.5 -77q101 0 189 92v377q-78 102 -189 102q-112 0 -177 -77.5t-65 -209.5z" />
<glyph unicode="h" horiz-adv-x="1234" d="M154 0v1454h258v-489q95 125 295 125q166 0 247.5 -108t81.5 -310v-383q0 -47 16 -67.5t50 -20.5t86 32l10 -206q-85 -47 -194 -47q-117 0 -171.5 56.5t-54.5 182.5v402q0 227 -176 227q-68 0 -117.5 -52t-72.5 -126v-670h-258z" />
<glyph unicode="i" horiz-adv-x="628" d="M129 1374q0 133 156 133q145 0 145 -133q0 -135 -145 -135q-156 0 -156 135zM154 219v852h258v-782q0 -47 14.5 -67.5t46.5 -20.5q36 0 88 32l10 -206q-81 -47 -194 -47q-115 0 -169 56.5t-54 182.5z" />
<glyph unicode="j" horiz-adv-x="565" d="M14 -231q69 51 104.5 116.5t35.5 171.5v1014h258v-1001q0 -94 -18.5 -170.5t-53.5 -132.5t-77 -96t-97 -74zM135 1374q0 133 148 133q149 0 149 -133q0 -135 -149 -135q-148 0 -148 135z" />
<glyph unicode="k" horiz-adv-x="1150" d="M154 0v1454h258v-805q63 1 110 10.5t93 36.5t78.5 73t58.5 121.5t41 180.5h260q-45 -383 -248 -530l282 -508v-33h-266l-231 451q-94 -17 -178 -17v-434h-258z" />
<glyph unicode="l" horiz-adv-x="628" d="M147 236v1218h259v-1149q0 -58 18 -81t57 -23q45 0 99 32l10 -206q-92 -47 -207 -47q-120 0 -178 60t-58 196z" />
<glyph unicode="m" horiz-adv-x="1814" d="M154 0v1071h258v-104q91 123 284 123q206 0 281 -170q95 170 301 170q178 0 259 -103t81 -307v-391q0 -47 15 -67.5t48 -20.5q38 0 86 32l13 -206q-85 -47 -197 -47q-115 0 -169 56.5t-54 182.5v410q0 114 -41.5 166.5t-128.5 52.5q-117 0 -170 -148v-20v-680h-256v629 q0 219 -170 219q-133 0 -182 -160v-688h-258z" />
<glyph unicode="n" horiz-adv-x="1234" d="M154 0v1071h258v-106q95 125 295 125q166 0 247.5 -108t81.5 -310v-383q0 -47 16 -67.5t50 -20.5t86 32l10 -206q-85 -47 -194 -47q-117 0 -171.5 56.5t-54.5 182.5v402q0 227 -176 227q-68 0 -117.5 -52t-72.5 -126v-670h-258z" />
<glyph unicode="o" horiz-adv-x="1163" d="M92 532q0 264 133 416t355 152q225 0 358 -151.5t133 -416.5q0 -262 -133 -411.5t-358 -149.5q-222 0 -355 150t-133 411zM346 532q0 -156 63 -239.5t171 -83.5q111 0 173 83t62 240q0 160 -62 244t-173 84q-108 0 -171 -84.5t-63 -243.5z" />
<glyph unicode="p" horiz-adv-x="1261" d="M51 1044q94 48 207 48q148 0 193 -134q100 134 292 134t307 -147.5t115 -409.5q0 -261 -115 -407t-307 -146q-170 0 -272 102v-467h-258v1147q0 50 -14.5 77t-51.5 27t-86 -34zM471 305q30 -40 81.5 -67t109.5 -27q113 0 177 87t64 241q0 151 -64.5 237t-176.5 86 q-58 0 -108.5 -27t-82.5 -67v-463z" />
<glyph unicode="q" horiz-adv-x="1200" d="M96 532q0 262 113.5 410t304.5 148q177 0 277 -111v92h256v-1456h-256v467q-107 -102 -277 -102q-192 0 -305 144.5t-113 407.5zM358 539q0 -154 64.5 -242t177.5 -88q56 0 107.5 27.5t83.5 66.5v463q-32 40 -83 67t-108 27q-113 0 -177.5 -85.5t-64.5 -235.5z" />
<glyph unicode="r" horiz-adv-x="876" d="M51 1044q94 48 207 48q150 0 195 -136q34 70 86.5 102t140.5 32q105 0 164 -52l-35 -241q-66 51 -160 51q-79 0 -119 -58.5t-59 -166.5v-623h-258v764q0 50 -14.5 77t-51.5 27t-86 -34z" />
<glyph unicode="s" horiz-adv-x="927" d="M90 756q0 145 106.5 239.5t290.5 94.5q86 0 186 -21t158 -49l-61 -221q-145 69 -268 69q-148 0 -148 -104q0 -39 26.5 -62t96.5 -43l139 -41q108 -34 164 -108t56 -182q0 -147 -103 -247.5t-282 -100.5q-101 0 -193.5 23.5t-153.5 55.5l52 228q162 -90 282 -90 q66 0 101.5 28.5t35.5 79.5q0 50 -28 74t-86 41l-148 45q-223 70 -223 291z" />
<glyph unicode="t" horiz-adv-x="880" d="M51 866v205h176l31 272h209v-272h330v-205h-330v-514q0 -145 123 -145q43 0 95.5 19.5t88.5 47.5l66 -206q-75 -44 -146 -66t-166 -22q-146 0 -231.5 83.5t-85.5 255.5v547h-160z" />
<glyph unicode="u" horiz-adv-x="1239" d="M143 397v674h258v-641q0 -104 37.5 -157.5t128.5 -53.5q138 0 203 141v711h256v-782q0 -47 15.5 -67.5t48.5 -20.5q36 0 88 32l10 -206q-81 -47 -195 -47q-86 0 -136.5 29t-72.5 93q-99 -122 -303 -122q-338 0 -338 417z" />
<glyph unicode="v" horiz-adv-x="1212" d="M37 1042q78 48 205 48q107 0 161 -66t54 -209v-346q0 -118 47.5 -184t132.5 -66q86 0 141.5 76.5t55.5 206.5q0 153 -26.5 305t-62.5 264h265q29 -104 56.5 -267t27.5 -319q0 -231 -123 -368t-336 -137q-212 0 -323 117.5t-111 332.5v338q0 53 -15 76.5t-51 23.5 q-42 0 -88 -32z" />
<glyph unicode="w" horiz-adv-x="1789" d="M37 1044q112 46 213 46q209 0 209 -269v-360q0 -242 164 -242q82 0 130 63t48 187v602h241v-614q0 -110 46 -174t124 -64q88 0 137.5 75.5t49.5 205.5q0 267 -74 571h264q78 -283 78 -571q0 -249 -109.5 -384.5t-310.5 -135.5q-124 0 -202 41t-127 145 q-49 -103 -128 -144.5t-200 -41.5q-389 0 -389 450v336q0 54 -15 78t-51 24q-46 0 -88 -34z" />
<glyph unicode="x" horiz-adv-x="1071" d="M57 0v20l295 512l-295 521v18h277l198 -399l205 399h277v-18l-301 -521l301 -512v-20h-281l-201 393l-194 -393h-281z" />
<glyph unicode="y" horiz-adv-x="1060" d="M18 1071h285l240 -784l231 784h262l-401 -1157q-27 -80 -57.5 -136t-73.5 -99t-102 -64t-136 -21q-57 0 -113 17.5t-94 42.5l37 196q75 -40 152 -40q64 0 101.5 36.5t62.5 118.5l18 60z" />
<glyph unicode="z" horiz-adv-x="944" d="M98 0v184l424 680h-424v207h748v-184l-422 -680h422v-207h-748z" />
<glyph unicode="{" horiz-adv-x="634" d="M74 451v157q95 0 138.5 35.5t43.5 110.5q0 78 -44 228t-44 226q0 115 70 180.5t211 65.5h90v-184h-47q-64 0 -92.5 -34t-28.5 -87t44 -201t44 -229q0 -157 -148 -191q76 -17 112 -64t36 -130q0 -78 -44 -225t-44 -201q0 -123 121 -123h47v-184h-90q-142 0 -211.5 67 t-69.5 189q0 75 44 227t44 233q0 71 -43 102.5t-139 31.5z" />
<glyph unicode="|" horiz-adv-x="530" d="M164 -385v1839h203v-1839h-203z" />
<glyph unicode="}" horiz-adv-x="636" d="M96 -215h51q62 0 90.5 34.5t28.5 88.5t-44 201t-44 225q0 83 35.5 130t112.5 64q-148 33 -148 191q0 81 44 229t44 201t-28.5 87t-90.5 34h-51v184h92q140 0 209.5 -65.5t69.5 -180.5q0 -76 -43 -225.5t-43 -228.5q0 -75 42.5 -110.5t139.5 -35.5v-157q-98 0 -140 -31.5 t-42 -102.5q0 -81 43 -233t43 -227q0 -122 -69 -189t-210 -67h-92v184z" />
<glyph unicode="~" horiz-adv-x="958" d="M111 598q22 78 77.5 132t128.5 54q48 0 95.5 -24t79 -52.5t69.5 -52.5t68 -24q85 0 133 125l88 -123q-23 -88 -82 -141.5t-131 -53.5q-36 0 -71 16t-63 38.5t-55 45t-58.5 38.5t-61.5 16q-42 0 -78.5 -32t-54.5 -91z" />
<glyph unicode="&#xa1;" horiz-adv-x="563" d="M121 936q0 79 42 121.5t118 42.5q75 0 116 -42.5t41 -121.5q0 -80 -41 -124t-116 -44t-117.5 44.5t-42.5 123.5zM154 -324l39 895h178l41 -895h-258z" />
<glyph unicode="&#xa2;" d="M76 532q0 249 132.5 408.5t348.5 159.5q31 0 45 -2l55 227l148 -43l-51 -219q167 -74 241 -313l-190 -84q-40 125 -105 176l-153 -649q21 -3 45 -3q139 0 272 127l94 -198q-76 -69 -176 -108.5t-213 -39.5q-23 0 -73 4l-60 -256l-147 43l59 250q-137 61 -204.5 196.5 t-67.5 323.5zM315 541q0 -185 91 -279l147 627q-107 -1 -172.5 -98t-65.5 -250z" />
<glyph unicode="&#xa3;" d="M33 197q0 92 52 150.5t134 58.5q44 0 78 -21q0 63 -37 244h-164v162h129q-20 117 -20 219q0 178 96 290.5t281 112.5q106 0 206 -38.5t158 -86.5l-76 -227q-109 113 -243 113q-79 0 -120.5 -62t-41.5 -164q0 -65 10 -157h324v-162h-303q18 -148 18 -242q0 -47 -2 -70 q6 -5 47.5 -42t71.5 -55.5t57 -18.5q53 0 75.5 51.5t22.5 155.5v51h220q4 -70 4 -99q0 -180 -62.5 -280t-195.5 -100q-41 0 -87 21t-76 45t-72.5 60.5t-59.5 49.5q-40 -87 -93.5 -131.5t-140.5 -44.5q-90 0 -140 61t-50 156zM172 188q0 -65 47 -65q55 0 68 119 q-18 18 -49 18q-29 0 -47.5 -20t-18.5 -52z" />
<glyph unicode="&#xa4;" horiz-adv-x="1136" d="M133 330l105 104q-52 80 -52 184q0 106 52 183l-105 108l148 148l112 -115q73 45 170 45q107 0 178 -51l119 121l148 -148l-119 -116q49 -77 49 -175q0 -95 -47 -174l117 -114l-148 -148l-119 117q-74 -47 -178 -47q-102 0 -170 41l-112 -111zM371 618q0 -83 53.5 -138.5 t138.5 -55.5q84 0 137.5 55.5t53.5 138.5q0 81 -54 138t-137 57q-84 0 -138 -57t-54 -138z" />
<glyph unicode="&#xa5;" d="M43 1374v19h266l207 -625l217 625h266v-19l-301 -692h205v-160h-258v-112h258v-160h-258v-250h-260v250h-256v160h256v112h-256v160h203z" />
<glyph unicode="&#xa6;" horiz-adv-x="548" d="M172 326h205v-711h-205v711zM172 768v686h205v-686h-205z" />
<glyph unicode="&#xa7;" horiz-adv-x="1155" d="M131 586q0 81 35.5 150t103.5 116q-70 35 -104.5 90.5t-34.5 140.5q0 144 123.5 237t337.5 93q115 0 229 -26t185 -62l-70 -213q-193 90 -367 90q-92 0 -140 -29t-48 -81q0 -20 9 -35.5t19 -24t34.5 -17.5t37 -12.5t45.5 -10.5q8 -2 13 -3l178 -39q154 -36 232.5 -119.5 t78.5 -203.5q0 -175 -145 -269q145 -77 145 -223q0 -152 -127 -242t-338 -90q-119 0 -234 29.5t-182 65.5l58 211q205 -93 373 -93q92 0 142 29t50 80q0 23 -11 41t-25 29t-47 23t-54.5 18t-71.5 18l-168 39q-137 34 -199.5 104t-62.5 189zM354 612q0 -55 30 -85.5 t101 -49.5l131 -33q79 8 127 49t48 107q0 63 -44 103.5t-122 54.5l-103 22q-82 -13 -125 -61.5t-43 -106.5z" />
<glyph unicode="&#xa8;" d="M160 1370q0 129 139 129q137 0 137 -129q0 -127 -137 -127q-139 0 -139 127zM608 1370q0 129 140 129q135 0 135 -129q0 -65 -36 -96t-99 -31q-140 0 -140 127z" />
<glyph unicode="&#xa9;" horiz-adv-x="1630" d="M98 694q0 152 54.5 285.5t149.5 228.5t227.5 150t283.5 55q152 0 285.5 -55t228.5 -150t150 -228.5t55 -285.5q0 -201 -93 -364.5t-258 -256.5t-368 -93q-201 0 -365 93t-257 256.5t-93 364.5zM246 694q0 -247 161 -410t406 -163q163 0 293.5 74.5t204 205.5t73.5 293 q0 163 -73.5 295t-204 206.5t-293.5 74.5q-245 0 -406 -164t-161 -412zM461 694q0 165 101 262t259 97q132 0 207 -70t78 -192l-166 -39q-3 118 -119 118q-72 0 -115.5 -46.5t-43.5 -129.5t44 -129.5t119 -46.5q93 0 172 68l111 -137q-51 -48 -127.5 -80.5t-159.5 -32.5 q-158 0 -259 96.5t-101 261.5z" />
<glyph unicode="&#xaa;" horiz-adv-x="917" d="M143 883q0 119 86 182t238 63q27 0 39 -2v25q0 59 -24 82.5t-74 23.5q-44 0 -95 -15.5t-82 -37.5l-30 156q44 19 121 33t131 14q126 0 175.5 -59.5t49.5 -180.5v-286q0 -32 8 -45t33 -13q18 0 57 27l6 -143q-73 -33 -143 -33q-85 0 -117 78q-71 -78 -174 -78 q-93 0 -149 58.5t-56 150.5zM193 371v143h550v-143h-550zM293 905q0 -40 27.5 -62t74.5 -22q60 0 111 37v148q-36 8 -64 8q-63 0 -106 -27.5t-43 -81.5z" />
<glyph unicode="&#xab;" horiz-adv-x="1017" d="M94 592v51l281 418h18l94 -53l-180 -390l180 -389l-94 -53h-18zM502 592v51l284 418h19l94 -53l-178 -390l178 -389l-94 -53h-19z" />
<glyph unicode="&#xac;" d="M104 639v207h836l-2 -588h-201v381h-633z" />
<glyph unicode="&#xad;" horiz-adv-x="985" d="M141 516v207h703v-207h-703z" />
<glyph unicode="&#xae;" horiz-adv-x="1630" d="M98 694q0 152 54.5 285.5t149.5 228.5t227.5 150t283.5 55q152 0 285.5 -55t228.5 -150t150 -228.5t55 -285.5q0 -201 -93 -364.5t-258 -256.5t-368 -93q-201 0 -365 93t-257 256.5t-93 364.5zM246 694q0 -247 161 -410t406 -163q163 0 293 74.5t203 205.5t73 293 q0 163 -73 294.5t-203 206.5t-293 75q-245 0 -406 -164t-161 -412zM520 346v696h322q118 0 194 -60t76 -177q0 -78 -46.5 -134t-121.5 -77q54 -41 94.5 -62.5t81.5 -21.5q36 0 76 14l16 -162q-54 -26 -116 -26q-47 0 -94.5 18t-86.5 46t-73 57t-68 56t-57 38v-205h-197z M717 725h125q37 0 61.5 22.5t24.5 57.5q0 38 -24 59t-62 21h-125v-160z" />
<glyph unicode="&#xaf;" d="M297 1257v183h448v-183h-448z" />
<glyph unicode="&#xb0;" horiz-adv-x="851" d="M100 1042q0 173 90.5 272t233.5 99q146 0 236 -98.5t90 -272.5t-90 -271t-236 -97q-144 0 -234 97t-90 271zM276 1042q0 -97 39.5 -145.5t108.5 -48.5q70 0 110.5 49t40.5 145q0 97 -40.5 146t-110.5 49q-68 0 -108 -49t-40 -146z" />
<glyph unicode="&#xb1;" d="M104 117v207h836v-207h-836zM104 745v207h318v383h201v-383h317v-207h-317v-260h-201v260h-318z" />
<glyph unicode="&#xb2;" horiz-adv-x="622" d="M68 1370q3 114 65.5 181t173.5 67t169.5 -62.5t58.5 -162.5q0 -68 -27.5 -125t-95.5 -113l-123 -106h260v-129h-463v110l225 201q80 71 80 149q0 45 -24 74t-68 29q-50 0 -75 -37t-25 -100z" />
<glyph unicode="&#xb3;" horiz-adv-x="604" d="M66 950l36 123q77 -37 164 -37q53 0 84 25t31 69q0 41 -26 59.5t-81 18.5h-135v125h135q42 0 65 22t23 56q0 82 -102 82q-83 0 -164 -41l-30 125q95 41 208 41t173.5 -50t60.5 -143q0 -51 -25.5 -89.5t-72.5 -55.5q118 -32 118 -172q0 -91 -66 -145t-188 -54 q-95 0 -208 41z" />
<glyph unicode="&#xb4;" d="M324 1210l143 308h252l-180 -308h-215z" />
<glyph unicode="&#xb5;" horiz-adv-x="1185" d="M168 -385v1456h258v-539q0 -164 38.5 -238.5t137.5 -74.5q126 0 191 137v715h258v-1071h-258v82q-99 -102 -287 -102q-30 0 -80 8v-373h-258z" />
<glyph unicode="&#xb6;" horiz-adv-x="1069" d="M63 795q0 129 72 202.5t184 73.5h304v-1456h-199v903h-105q-112 0 -184 73.5t-72 203.5zM733 -385v1456h201v-1456h-201z" />
<glyph unicode="&#xb7;" horiz-adv-x="569" d="M127 606q0 78 41.5 121t116.5 43q74 0 115.5 -43t41.5 -121q0 -79 -41.5 -121.5t-115.5 -42.5q-75 0 -116.5 42.5t-41.5 121.5z" />
<glyph unicode="&#xb8;" d="M352 -383l23 88q64 -22 108 -22q90 0 90 63q0 28 -23 43.5t-65 15.5q-64 0 -108 -14l-6 10l51 203h102l-30 -125q18 6 45 6q72 0 111.5 -37t39.5 -98q0 -73 -55.5 -114.5t-142.5 -41.5q-72 0 -140 23z" />
<glyph unicode="&#xb9;" horiz-adv-x="499" d="M23 1444l260 162h102v-686h-141v520l-164 -105z" />
<glyph unicode="&#xba;" horiz-adv-x="886" d="M121 1042q0 177 89 274t234 97q146 0 236 -97t90 -274t-90 -272.5t-236 -95.5t-234.5 95t-88.5 273zM170 371v143h551v-143h-551zM281 1042q0 -105 44 -159t119 -54q76 0 119 53.5t43 159.5t-43 159.5t-119 53.5q-75 0 -119 -54t-44 -159z" />
<glyph unicode="&#xbb;" horiz-adv-x="1015" d="M117 227l180 391l-180 388l94 55h18l281 -418v-51l-281 -416h-18zM526 227l181 391l-181 388l95 55h20l281 -418v-51l-281 -416h-20z" />
<glyph unicode="&#xbc;" horiz-adv-x="1474" d="M55 1239l260 162h103v-686h-142v520l-163 -105zM299 0v20l643 1373h145v-19l-641 -1374h-147zM838 127v96l272 463l43 -2v2h145v-448h99v-111h-99v-127h-145v127h-315zM983 238h170v292z" />
<glyph unicode="&#xbd;" horiz-adv-x="1462" d="M55 1239l260 162h103v-686h-142v520l-163 -105zM299 0v20l643 1373h145v-19l-641 -1374h-147zM889 451q3 114 65.5 180.5t173.5 66.5t169.5 -63t58.5 -164q0 -68 -27.5 -123.5t-95.5 -111.5l-123 -107h260v-129h-463v111l226 198q79 73 79 152q0 44 -24 73t-68 29 q-50 0 -75 -37t-25 -100z" />
<glyph unicode="&#xbe;" horiz-adv-x="1556" d="M84 745l37 123q77 -37 164 -37q53 0 83.5 25.5t30.5 69.5q0 41 -25.5 59.5t-80.5 18.5h-135v124h135q42 0 65 22t23 56q0 82 -102 82q-83 0 -164 -41l-31 125q95 41 209 41q113 0 173 -49.5t60 -142.5q0 -52 -25.5 -90.5t-72.5 -55.5q57 -15 88 -59t31 -113 q0 -91 -66 -144.5t-188 -53.5q-99 0 -209 40zM391 0v20l643 1373h146v-19l-641 -1374h-148zM932 127v96l272 463l43 -2v2h146v-448h98v-111h-98v-127h-146v127h-315zM1077 238h170v292z" />
<glyph unicode="&#xbf;" horiz-adv-x="851" d="M78 -12q0 59 13.5 110.5t40.5 94.5t49.5 70.5t56.5 62.5l94 90q25 26 32.5 35t15 26.5t7.5 40.5q0 22 -6 57h211q22 -68 22 -122q0 -49 -24 -88t-76 -84l-82 -72q-31 -31 -48 -52t-32.5 -58t-15.5 -79q0 -65 41 -104t112 -39q129 0 230 133l67 -205q-151 -147 -360 -147 q-163 0 -255.5 93t-92.5 237zM328 934q0 79 41.5 121.5t117.5 42.5q75 0 115.5 -42.5t40.5 -121.5q0 -77 -41 -121.5t-115 -44.5q-75 0 -117 44.5t-42 121.5z" />
<glyph unicode="&#xc0;" horiz-adv-x="1288" d="M29 0l467 1393h303l454 -1393h-260l-88 289h-526l-90 -289h-260zM371 1839h254l141 -307h-213zM444 483h398l-195 650z" />
<glyph unicode="&#xc1;" horiz-adv-x="1288" d="M29 0l467 1393h303l454 -1393h-260l-88 289h-526l-90 -289h-260zM444 483h398l-195 650zM508 1532l143 307h252l-180 -307h-215z" />
<glyph unicode="&#xc2;" horiz-adv-x="1288" d="M29 0l467 1393h303l454 -1393h-260l-88 289h-526l-90 -289h-260zM340 1532l178 307h252l178 -307h-192l-111 178l-113 -178h-192zM444 483h398l-195 650z" />
<glyph unicode="&#xc3;" horiz-adv-x="1288" d="M29 0l467 1393h303l454 -1393h-260l-88 289h-526l-90 -289h-260zM313 1663q28 70 82.5 119t116.5 49q42 0 82 -19.5t65 -43t57.5 -43t61.5 -19.5q78 0 119 92l78 -102q-76 -168 -199 -168q-39 0 -79.5 19t-67.5 42.5t-59 42.5t-58 19q-74 0 -123 -92zM444 483h398 l-195 650z" />
<glyph unicode="&#xc4;" horiz-adv-x="1288" d="M29 0l467 1393h303l454 -1393h-260l-88 289h-526l-90 -289h-260zM285 1692q0 129 139 129q137 0 137 -129q0 -127 -137 -127q-139 0 -139 127zM444 483h398l-195 650zM733 1692q0 129 139 129q136 0 136 -129q0 -65 -36.5 -96t-99.5 -31q-139 0 -139 127z" />
<glyph unicode="&#xc5;" horiz-adv-x="1288" d="M29 0l463 1380q-46 56 -46 127q0 83 59 142t142 59t142 -59t59 -142q0 -73 -45 -127l450 -1380h-260l-88 289h-526l-90 -289h-260zM444 483h398l-195 650zM555 1507q0 -38 27 -65t65 -27q37 0 63.5 27t26.5 65q0 37 -26.5 63.5t-63.5 26.5q-38 0 -65 -26.5t-27 -63.5z " />
<glyph unicode="&#xc6;" horiz-adv-x="1886" d="M-4 0l678 1393h1100v-232h-695v-340h568v-211h-568v-381h695v-229h-943v289h-428l-133 -289h-274zM500 483h331v682z" />
<glyph unicode="&#xc7;" horiz-adv-x="1304" d="M113 694q0 167 46 303t127.5 227t193.5 140t243 49q231 0 355 -121.5t128 -363.5l-235 -47q-3 147 -67.5 217.5t-190.5 70.5q-153 0 -242.5 -125.5t-89.5 -349.5q0 -229 96 -350t268 -121q93 0 188.5 51.5t170.5 124.5l104 -215q-85 -88 -215 -146t-270 -58h-4l-25 -101 q18 6 45 6q72 0 112 -37t40 -98q0 -73 -56 -114.5t-143 -41.5q-71 0 -139 23l22 88q64 -22 109 -22q90 0 90 63q0 28 -23 43.5t-65 15.5q-64 0 -108 -14l-7 10l47 187q-228 36 -366.5 223t-138.5 483z" />
<glyph unicode="&#xc8;" horiz-adv-x="1243" d="M186 0v1393h944v-232h-694v-332h568v-227h-568v-373h694v-229h-944zM391 1839h254l141 -307h-213z" />
<glyph unicode="&#xc9;" horiz-adv-x="1243" d="M186 0v1393h944v-232h-694v-332h568v-227h-568v-373h694v-229h-944zM528 1532l144 307h252l-181 -307h-215z" />
<glyph unicode="&#xca;" horiz-adv-x="1243" d="M186 0v1393h944v-232h-694v-332h568v-227h-568v-373h694v-229h-944zM356 1532l179 307h251l179 -307h-193l-110 178l-113 -178h-193z" />
<glyph unicode="&#xcb;" horiz-adv-x="1243" d="M186 0v1393h944v-232h-694v-332h568v-227h-568v-373h694v-229h-944zM299 1692q0 129 139 129q137 0 137 -129q0 -127 -137 -127q-139 0 -139 127zM748 1692q0 129 139 129q135 0 135 -129q0 -65 -36 -96t-99 -31q-139 0 -139 127z" />
<glyph unicode="&#xcc;" horiz-adv-x="632" d="M41 1839h254l141 -307h-213zM186 0v1393h263v-1393h-263z" />
<glyph unicode="&#xcd;" horiz-adv-x="632" d="M186 0v1393h263v-1393h-263zM203 1532l143 307h252l-180 -307h-215z" />
<glyph unicode="&#xce;" horiz-adv-x="632" d="M12 1532l178 307h252l179 -307h-193l-111 178l-112 -178h-193zM186 0v1393h263v-1393h-263z" />
<glyph unicode="&#xcf;" horiz-adv-x="632" d="M-49 1692q0 129 139 129q137 0 137 -129q0 -127 -137 -127q-139 0 -139 127zM186 0v1393h263v-1393h-263zM399 1692q0 129 140 129q135 0 135 -129q0 -65 -36 -96t-99 -31q-140 0 -140 127z" />
<glyph unicode="&#xd0;" horiz-adv-x="1429" d="M80 592v207h106v594h519q132 0 243.5 -46.5t193.5 -133.5t128.5 -220t46.5 -299q0 -165 -46.5 -297.5t-128.5 -218.5t-193.5 -132t-243.5 -46h-519v592h-106zM449 229h223q176 0 278.5 121.5t102.5 343.5q0 225 -102.5 347t-278.5 122h-223v-364h223v-207h-223v-363z" />
<glyph unicode="&#xd1;" horiz-adv-x="1505" d="M186 0v1393h226l645 -955v955h264v-1393h-231l-644 952v-952h-260zM426 1663q28 70 82.5 119t116.5 49q42 0 82 -19.5t65 -43t57.5 -43t61.5 -19.5q78 0 119 92l77 -102q-76 -168 -198 -168q-39 0 -79.5 19t-67.5 42.5t-59 42.5t-58 19q-74 0 -123 -92z" />
<glyph unicode="&#xd2;" horiz-adv-x="1439" d="M111 694q0 211 74 374t212 254t320 91q184 0 323.5 -91t214 -254t74.5 -374q0 -209 -74.5 -371t-214 -252.5t-323.5 -90.5q-182 0 -320 90.5t-212 252.5t-74 371zM369 694q0 -229 94.5 -348t253.5 -119q163 0 258.5 118.5t95.5 348.5q0 232 -95 351.5t-259 119.5 q-160 0 -254 -119.5t-94 -351.5zM440 1839h254l142 -307h-213z" />
<glyph unicode="&#xd3;" horiz-adv-x="1439" d="M111 694q0 211 74 374t212 254t320 91q184 0 323.5 -91t214 -254t74.5 -374q0 -209 -74.5 -371t-214 -252.5t-323.5 -90.5q-182 0 -320 90.5t-212 252.5t-74 371zM369 694q0 -229 94.5 -348t253.5 -119q163 0 258.5 118.5t95.5 348.5q0 232 -95 351.5t-259 119.5 q-160 0 -254 -119.5t-94 -351.5zM602 1532l143 307h252l-180 -307h-215z" />
<glyph unicode="&#xd4;" horiz-adv-x="1439" d="M111 694q0 211 74 374t212 254t320 91q184 0 323.5 -91t214 -254t74.5 -374q0 -209 -74.5 -371t-214 -252.5t-323.5 -90.5q-182 0 -320 90.5t-212 252.5t-74 371zM369 694q0 -229 94.5 -348t253.5 -119q163 0 258.5 118.5t95.5 348.5q0 232 -95 351.5t-259 119.5 q-160 0 -254 -119.5t-94 -351.5zM414 1532l178 307h252l178 -307h-193l-110 178l-113 -178h-192z" />
<glyph unicode="&#xd5;" horiz-adv-x="1439" d="M111 694q0 211 74 374t212 254t320 91q184 0 323.5 -91t214 -254t74.5 -374q0 -209 -74.5 -371t-214 -252.5t-323.5 -90.5q-182 0 -320 90.5t-212 252.5t-74 371zM369 694q0 -229 94.5 -348t253.5 -119q163 0 258.5 118.5t95.5 348.5q0 232 -95 351.5t-259 119.5 q-160 0 -254 -119.5t-94 -351.5zM387 1663q28 70 82.5 119t116.5 49q42 0 82 -19.5t65 -43t57.5 -43t61.5 -19.5q78 0 119 92l78 -102q-76 -168 -199 -168q-39 0 -79.5 19t-67.5 42.5t-59 42.5t-58 19q-74 0 -123 -92z" />
<glyph unicode="&#xd6;" horiz-adv-x="1439" d="M111 694q0 211 74 374t212 254t320 91q184 0 323.5 -91t214 -254t74.5 -374q0 -209 -74.5 -371t-214 -252.5t-323.5 -90.5q-182 0 -320 90.5t-212 252.5t-74 371zM358 1692q0 129 140 129q137 0 137 -129q0 -127 -137 -127q-140 0 -140 127zM369 694q0 -229 94.5 -348 t253.5 -119q163 0 258.5 118.5t95.5 348.5q0 232 -95 351.5t-259 119.5q-160 0 -254 -119.5t-94 -351.5zM807 1692q0 129 139 129q135 0 135 -129q0 -65 -36 -96t-99 -31q-139 0 -139 127z" />
<glyph unicode="&#xd7;" d="M152 350l227 271l-227 268l145 147l225 -270l223 270l146 -147l-225 -268l225 -271l-146 -147l-223 270l-225 -270z" />
<glyph unicode="&#xd8;" horiz-adv-x="1439" d="M111 694q0 211 74 374t212 254t320 91q196 0 340 -104l57 84h184v-19l-122 -178q153 -198 153 -502q0 -209 -74.5 -371t-214 -252.5t-323.5 -90.5q-176 0 -318 90l-47 -70h-186v20l108 158q-163 199 -163 516zM369 694q0 -183 59 -295l487 705q-82 61 -198 61 q-160 0 -254 -119.5t-94 -351.5zM541 274q73 -47 176 -47q163 0 258.5 118.5t95.5 348.5q0 166 -51 277z" />
<glyph unicode="&#xd9;" horiz-adv-x="1427" d="M170 561v832h262v-815q0 -357 279 -357q282 0 282 359v813h262v-832q0 -125 -32.5 -229t-97 -184.5t-170.5 -125.5t-244 -45q-270 0 -405.5 155.5t-135.5 428.5zM436 1839h254l141 -307h-213z" />
<glyph unicode="&#xda;" horiz-adv-x="1427" d="M170 561v832h262v-815q0 -357 279 -357q282 0 282 359v813h262v-832q0 -125 -32.5 -229t-97 -184.5t-170.5 -125.5t-244 -45q-270 0 -405.5 155.5t-135.5 428.5zM596 1532l143 307h252l-180 -307h-215z" />
<glyph unicode="&#xdb;" horiz-adv-x="1427" d="M170 561v832h262v-815q0 -357 279 -357q282 0 282 359v813h262v-832q0 -125 -32.5 -229t-97 -184.5t-170.5 -125.5t-244 -45q-270 0 -405.5 155.5t-135.5 428.5zM408 1532l178 307h252l178 -307h-193l-110 178l-113 -178h-192z" />
<glyph unicode="&#xdc;" horiz-adv-x="1427" d="M170 561v832h262v-815q0 -357 279 -357q282 0 282 359v813h262v-832q0 -125 -32.5 -229t-97 -184.5t-170.5 -125.5t-244 -45q-270 0 -405.5 155.5t-135.5 428.5zM352 1692q0 129 140 129q137 0 137 -129q0 -127 -137 -127q-140 0 -140 127zM801 1692q0 129 139 129 q135 0 135 -129q0 -65 -36 -96t-99 -31q-139 0 -139 127z" />
<glyph unicode="&#xdd;" horiz-adv-x="1206" d="M14 1374v19h289l301 -594l301 594h287v-19l-461 -815v-559h-256v557zM485 1532l144 307h252l-181 -307h-215z" />
<glyph unicode="&#xde;" horiz-adv-x="1265" d="M186 0v1393h258v-199h312q89 0 165.5 -28t137.5 -84.5t96 -152t35 -220.5q0 -114 -35 -206.5t-95.5 -151.5t-138 -90.5t-165.5 -31.5h-312v-229h-258zM444 459h252q102 0 167 65.5t65 186.5q0 127 -64.5 191.5t-167.5 64.5h-252v-508z" />
<glyph unicode="&#xdf;" horiz-adv-x="1232" d="M154 0v950q0 119 26.5 211t70.5 150.5t107.5 96t131.5 52.5t147 15q101 0 183 -36.5t132 -95t76.5 -128t26.5 -140.5q0 -80 -30.5 -156t-60.5 -125.5t-30 -66.5q0 -13 22 -38t54 -59.5t63.5 -77.5t53.5 -105t22 -128q0 -149 -95.5 -244t-252.5 -95q-160 0 -264 53l28 209 q72 -41 142 -41q69 0 115 43t46 114q0 43 -21.5 86.5t-53 77.5t-62.5 65.5t-52.5 62t-21.5 55.5q0 27 21 67.5t46 78.5t46 94.5t21 111.5q0 82 -45.5 133t-133.5 51q-200 0 -200 -291v-950h-258z" />
<glyph unicode="&#xe0;" horiz-adv-x="1259" d="M96 532q0 258 113 408t319 150q75 0 146 -25t114 -76v82h259v-768q0 -102 61 -102q36 0 90 35l10 -209q-88 -47 -204 -47q-82 0 -130 29.5t-67 103.5q-47 -63 -122 -97t-167 -34q-195 0 -308.5 144t-113.5 406zM358 532q0 -151 64.5 -237t177.5 -86q55 0 104.5 32 t83.5 76v447q-80 96 -188 96q-114 0 -178 -87t-64 -241zM362 1518h254l142 -308h-213z" />
<glyph unicode="&#xe1;" horiz-adv-x="1259" d="M96 532q0 258 113 408t319 150q75 0 146 -25t114 -76v82h259v-768q0 -102 61 -102q36 0 90 35l10 -209q-88 -47 -204 -47q-82 0 -130 29.5t-67 103.5q-47 -63 -122 -97t-167 -34q-195 0 -308.5 144t-113.5 406zM358 532q0 -151 64.5 -237t177.5 -86q55 0 104.5 32 t83.5 76v447q-80 96 -188 96q-114 0 -178 -87t-64 -241zM502 1210l143 308h252l-180 -308h-215z" />
<glyph unicode="&#xe2;" horiz-adv-x="1259" d="M96 532q0 258 113 408t319 150q75 0 146 -25t114 -76v82h259v-768q0 -102 61 -102q36 0 90 35l10 -209q-88 -47 -204 -47q-82 0 -130 29.5t-67 103.5q-47 -63 -122 -97t-167 -34q-195 0 -308.5 144t-113.5 406zM313 1210l179 308h251l179 -308h-193l-111 179l-112 -179 h-193zM358 532q0 -151 64.5 -237t177.5 -86q55 0 104.5 32t83.5 76v447q-80 96 -188 96q-114 0 -178 -87t-64 -241z" />
<glyph unicode="&#xe3;" horiz-adv-x="1259" d="M96 532q0 258 113 408t319 150q75 0 146 -25t114 -76v82h259v-768q0 -102 61 -102q36 0 90 35l10 -209q-88 -47 -204 -47q-82 0 -130 29.5t-67 103.5q-47 -63 -122 -97t-167 -34q-195 0 -308.5 144t-113.5 406zM297 1341q28 70 82.5 119t116.5 49q42 0 82 -19.5t65 -43 t57.5 -43t61.5 -19.5q77 0 119 93l77 -103q-76 -168 -198 -168q-39 0 -79.5 19t-67.5 42.5t-59 42.5t-58 19q-74 0 -123 -92zM358 532q0 -151 64.5 -237t177.5 -86q55 0 104.5 32t83.5 76v447q-80 96 -188 96q-114 0 -178 -87t-64 -241z" />
<glyph unicode="&#xe4;" horiz-adv-x="1259" d="M96 532q0 258 113 408t319 150q75 0 146 -25t114 -76v82h259v-768q0 -102 61 -102q36 0 90 35l10 -209q-88 -47 -204 -47q-82 0 -130 29.5t-67 103.5q-47 -63 -122 -97t-167 -34q-195 0 -308.5 144t-113.5 406zM274 1370q0 129 140 129q137 0 137 -129q0 -127 -137 -127 q-140 0 -140 127zM358 532q0 -151 64.5 -237t177.5 -86q55 0 104.5 32t83.5 76v447q-80 96 -188 96q-114 0 -178 -87t-64 -241zM723 1370q0 129 139 129q135 0 135 -129q0 -65 -36 -96t-99 -31q-139 0 -139 127z" />
<glyph unicode="&#xe5;" horiz-adv-x="1259" d="M96 532q0 258 113 408t319 150q75 0 146 -25t114 -76v82h259v-768q0 -102 61 -102q36 0 90 35l10 -209q-88 -47 -204 -47q-82 0 -130 29.5t-67 103.5q-47 -63 -122 -97t-167 -34q-195 0 -308.5 144t-113.5 406zM358 532q0 -151 64.5 -237t177.5 -86q55 0 104.5 32 t83.5 76v447q-80 96 -188 96q-114 0 -178 -87t-64 -241zM420 1372q0 83 59 142t142 59t141.5 -59t58.5 -142t-58.5 -142t-141.5 -59t-142 59t-59 142zM528 1372q0 -38 27.5 -65t65.5 -27q37 0 63.5 27t26.5 65q0 37 -26.5 63.5t-63.5 26.5q-38 0 -65.5 -26.5t-27.5 -63.5z " />
<glyph unicode="&#xe6;" horiz-adv-x="1654" d="M74 326q0 158 120 255t328 97q70 0 156 -12q0 121 -39 166t-137 45q-67 0 -158.5 -22t-142.5 -50l-41 223q84 34 192 53t207 19q225 0 285 -197q16 35 43 67t67.5 62.5t101 49t132.5 18.5q373 0 373 -424q0 -117 -25 -223h-604q6 -131 66.5 -195.5t189.5 -64.5 q146 0 270 112l88 -186q-158 -148 -389 -148q-125 0 -214 44t-140 118q-166 -162 -385 -162q-154 0 -249 95.5t-95 259.5zM336 322q0 -56 34.5 -90.5t98.5 -34.5q115 0 209 94v172q-45 10 -113 10q-108 0 -168.5 -38.5t-60.5 -112.5zM948 653h393q2 12 2 45q0 181 -180 181 q-100 0 -154.5 -62.5t-60.5 -163.5z" />
<glyph unicode="&#xe7;" horiz-adv-x="1071" d="M94 532q0 255 132 411.5t349 156.5q368 0 422 -373l-200 -74q-9 104 -59 159.5t-138 55.5q-112 0 -176 -89t-64 -238q0 -161 63.5 -249.5t197.5 -88.5q128 0 264 119l102 -203q-171 -145 -393 -148l-23 -92q18 6 45 6q72 0 112 -37t40 -98q0 -73 -56 -114.5t-143 -41.5 q-71 0 -139 23l23 88q64 -22 108 -22q90 0 90 63q0 28 -23 43.5t-65 15.5q-64 0 -108 -14l-6 10l45 179q-134 19 -225 94t-133 190.5t-42 267.5z" />
<glyph unicode="&#xe8;" horiz-adv-x="1075" d="M92 532q0 164 58 292.5t167.5 202t253.5 73.5q105 0 185.5 -33.5t128.5 -93t72 -135.5t24 -168q0 -107 -29 -217h-606q17 -260 266 -260q137 0 262 104l99 -195q-153 -131 -402 -131q-120 0 -212.5 42t-150.5 117.5t-87 177t-29 224.5zM326 1518h254l141 -308h-213z M360 653h379q6 24 6 54q0 84 -45.5 128t-128.5 44q-94 0 -148.5 -61.5t-62.5 -164.5z" />
<glyph unicode="&#xe9;" horiz-adv-x="1075" d="M92 532q0 164 58 292.5t167.5 202t253.5 73.5q105 0 185.5 -33.5t128.5 -93t72 -135.5t24 -168q0 -107 -29 -217h-606q17 -260 266 -260q137 0 262 104l99 -195q-153 -131 -402 -131q-120 0 -212.5 42t-150.5 117.5t-87 177t-29 224.5zM360 653h379q6 24 6 54 q0 84 -45.5 128t-128.5 44q-94 0 -148.5 -61.5t-62.5 -164.5zM451 1210l143 308h252l-180 -308h-215z" />
<glyph unicode="&#xea;" horiz-adv-x="1075" d="M92 532q0 164 58 292.5t167.5 202t253.5 73.5q105 0 185.5 -33.5t128.5 -93t72 -135.5t24 -168q0 -107 -29 -217h-606q17 -260 266 -260q137 0 262 104l99 -195q-153 -131 -402 -131q-120 0 -212.5 42t-150.5 117.5t-87 177t-29 224.5zM276 1210l179 308h252l178 -308 h-193l-110 179l-113 -179h-193zM360 653h379q6 24 6 54q0 84 -45.5 128t-128.5 44q-94 0 -148.5 -61.5t-62.5 -164.5z" />
<glyph unicode="&#xeb;" horiz-adv-x="1075" d="M92 532q0 164 58 292.5t167.5 202t253.5 73.5q105 0 185.5 -33.5t128.5 -93t72 -135.5t24 -168q0 -107 -29 -217h-606q17 -260 266 -260q137 0 262 104l99 -195q-153 -131 -402 -131q-120 0 -212.5 42t-150.5 117.5t-87 177t-29 224.5zM217 1370q0 129 139 129 q138 0 138 -129q0 -65 -36.5 -96t-101.5 -31q-139 0 -139 127zM360 653h379q6 24 6 54q0 84 -45.5 128t-128.5 44q-94 0 -148.5 -61.5t-62.5 -164.5zM666 1370q0 129 139 129q135 0 135 -129q0 -65 -36 -96t-99 -31q-139 0 -139 127z" />
<glyph unicode="&#xec;" horiz-adv-x="628" d="M23 1518h253l142 -308h-213zM154 219v852h256v-782q0 -47 15 -67.5t48 -20.5q36 0 88 32l10 -206q-81 -47 -194 -47q-116 0 -169.5 56t-53.5 183z" />
<glyph unicode="&#xed;" horiz-adv-x="628" d="M154 219v852h256v-782q0 -47 15 -67.5t48 -20.5q36 0 88 32l10 -206q-81 -47 -194 -47q-116 0 -169.5 56t-53.5 183zM158 1210l143 308h252l-180 -308h-215z" />
<glyph unicode="&#xee;" horiz-adv-x="628" d="M-23 1210l179 308h252l178 -308h-193l-110 179l-113 -179h-193zM154 219v852h256v-782q0 -47 15 -67.5t48 -20.5q36 0 88 32l10 -206q-81 -47 -194 -47q-116 0 -169.5 56t-53.5 183z" />
<glyph unicode="&#xef;" horiz-adv-x="628" d="M-76 1370q0 129 139 129q138 0 138 -129q0 -65 -36.5 -96t-101.5 -31q-139 0 -139 127zM154 219v852h256v-782q0 -47 15 -67.5t48 -20.5q36 0 88 32l10 -206q-81 -47 -194 -47q-116 0 -169.5 56t-53.5 183zM373 1370q0 129 139 129q135 0 135 -129q0 -65 -36 -96t-99 -31 q-139 0 -139 127z" />
<glyph unicode="&#xf0;" horiz-adv-x="1103" d="M80 475q0 202 97.5 327.5t268.5 125.5q154 0 279 -133q-22 206 -150 358l-90 -111l-67 62l94 115q-60 55 -139 90l102 166q98 -26 180 -82l84 102l68 -59l-80 -99q121 -106 192.5 -271t71.5 -368q0 -343 -126.5 -530.5t-362.5 -187.5q-186 0 -304 135.5t-118 359.5z M336 473q0 -113 48.5 -183.5t127.5 -70.5q185 0 213 348q-97 146 -207 146q-85 0 -133.5 -60.5t-48.5 -179.5z" />
<glyph unicode="&#xf1;" horiz-adv-x="1234" d="M154 0v1071h258v-106q95 125 295 125q166 0 247.5 -108t81.5 -310v-383q0 -47 16 -67.5t50 -20.5t86 32l10 -206q-85 -47 -194 -47q-117 0 -171.5 56.5t-54.5 182.5v402q0 227 -176 227q-68 0 -117.5 -52t-72.5 -126v-670h-258zM281 1341q28 70 82 119t116 49 q42 0 82 -19.5t65 -43t57.5 -43t61.5 -19.5q77 0 119 93l78 -103q-76 -168 -199 -168q-39 0 -79.5 19t-67.5 42.5t-59 42.5t-58 19q-74 0 -123 -92z" />
<glyph unicode="&#xf2;" horiz-adv-x="1163" d="M92 532q0 264 133 416t355 152q225 0 358 -151.5t133 -416.5q0 -262 -133 -411.5t-358 -149.5q-222 0 -355 150t-133 411zM303 1518h254l141 -308h-213zM346 532q0 -156 63 -239.5t171 -83.5q111 0 173 83t62 240q0 160 -62 244t-173 84q-108 0 -171 -84.5t-63 -243.5z " />
<glyph unicode="&#xf3;" horiz-adv-x="1163" d="M92 532q0 264 133 416t355 152q225 0 358 -151.5t133 -416.5q0 -262 -133 -411.5t-358 -149.5q-222 0 -355 150t-133 411zM346 532q0 -156 63 -239.5t171 -83.5q111 0 173 83t62 240q0 160 -62 244t-173 84q-108 0 -171 -84.5t-63 -243.5zM465 1210l143 308h252 l-180 -308h-215z" />
<glyph unicode="&#xf4;" horiz-adv-x="1163" d="M92 532q0 264 133 416t355 152q225 0 358 -151.5t133 -416.5q0 -262 -133 -411.5t-358 -149.5q-222 0 -355 150t-133 411zM276 1210l179 308h252l178 -308h-193l-110 179l-113 -179h-193zM346 532q0 -156 63 -239.5t171 -83.5q111 0 173 83t62 240q0 160 -62 244t-173 84 q-108 0 -171 -84.5t-63 -243.5z" />
<glyph unicode="&#xf5;" horiz-adv-x="1163" d="M92 532q0 264 133 416t355 152q225 0 358 -151.5t133 -416.5q0 -262 -133 -411.5t-358 -149.5q-222 0 -355 150t-133 411zM248 1341q28 70 82 119t116 49q42 0 82 -19.5t65.5 -43t58 -43t61.5 -19.5q76 0 118 93l78 -103q-76 -168 -198 -168q-39 0 -79.5 19t-68 42.5 t-59.5 42.5t-58 19q-73 0 -122 -92zM346 532q0 -156 63 -239.5t171 -83.5q111 0 173 83t62 240q0 160 -62 244t-173 84q-108 0 -171 -84.5t-63 -243.5z" />
<glyph unicode="&#xf6;" horiz-adv-x="1163" d="M92 532q0 264 133 416t355 152q225 0 358 -151.5t133 -416.5q0 -262 -133 -411.5t-358 -149.5q-222 0 -355 150t-133 411zM217 1370q0 129 139 129q138 0 138 -129q0 -65 -36.5 -96t-101.5 -31q-139 0 -139 127zM346 532q0 -156 63 -239.5t171 -83.5q111 0 173 83t62 240 q0 160 -62 244t-173 84q-108 0 -171 -84.5t-63 -243.5zM666 1370q0 129 139 129q135 0 135 -129q0 -65 -36 -96t-99 -31q-139 0 -139 127z" />
<glyph unicode="&#xf7;" d="M104 516v207h836v-207h-836zM381 227q0 71 36 109.5t103 38.5q65 0 102 -39t37 -109q0 -71 -37 -109t-102 -38q-68 0 -103.5 37.5t-35.5 109.5zM381 1010q0 71 36 109t103 38q65 0 102 -38.5t37 -108.5q0 -71 -37 -109.5t-102 -38.5q-68 0 -103.5 38t-35.5 110z" />
<glyph unicode="&#xf8;" horiz-adv-x="1163" d="M92 532q0 264 133 416t355 152q164 0 280 -84l39 55h129v-20l-80 -115q123 -151 123 -404q0 -262 -133 -411.5t-358 -149.5q-149 0 -261 70l-28 -41h-129v20l67 97q-137 149 -137 415zM346 532q0 -121 37 -196l334 477q-56 47 -137 47q-108 0 -171 -84.5t-63 -243.5z M461 242q47 -33 119 -33q111 0 173 83t62 240q0 98 -27 177z" />
<glyph unicode="&#xf9;" horiz-adv-x="1239" d="M143 397v674h258v-641q0 -104 37.5 -157.5t128.5 -53.5q138 0 203 141v711h256v-782q0 -47 15.5 -67.5t48.5 -20.5q36 0 88 32l10 -206q-81 -47 -195 -47q-86 0 -136.5 29t-72.5 93q-99 -122 -303 -122q-338 0 -338 417zM303 1518h254l141 -308h-213z" />
<glyph unicode="&#xfa;" horiz-adv-x="1239" d="M143 397v674h258v-641q0 -104 37.5 -157.5t128.5 -53.5q138 0 203 141v711h256v-782q0 -47 15.5 -67.5t48.5 -20.5q36 0 88 32l10 -206q-81 -47 -195 -47q-86 0 -136.5 29t-72.5 93q-99 -122 -303 -122q-338 0 -338 417zM483 1210l144 308h252l-181 -308h-215z" />
<glyph unicode="&#xfb;" horiz-adv-x="1239" d="M143 397v674h258v-641q0 -104 37.5 -157.5t128.5 -53.5q138 0 203 141v711h256v-782q0 -47 15.5 -67.5t48.5 -20.5q36 0 88 32l10 -206q-81 -47 -195 -47q-86 0 -136.5 29t-72.5 93q-99 -122 -303 -122q-338 0 -338 417zM287 1210l178 308h252l178 -308h-193l-110 179 l-113 -179h-192z" />
<glyph unicode="&#xfc;" horiz-adv-x="1239" d="M143 397v674h258v-641q0 -104 37.5 -157.5t128.5 -53.5q138 0 203 141v711h256v-782q0 -47 15.5 -67.5t48.5 -20.5q36 0 88 32l10 -206q-81 -47 -195 -47q-86 0 -136.5 29t-72.5 93q-99 -122 -303 -122q-338 0 -338 417zM233 1370q0 129 140 129q137 0 137 -129 q0 -127 -137 -127q-140 0 -140 127zM682 1370q0 129 139 129q135 0 135 -129q0 -65 -36 -96t-99 -31q-139 0 -139 127z" />
<glyph unicode="&#xfd;" horiz-adv-x="1060" d="M18 1071h285l240 -784l231 784h262l-401 -1157q-27 -80 -57.5 -136t-73.5 -99t-102 -64t-136 -21q-57 0 -113 17.5t-94 42.5l37 196q75 -40 152 -40q64 0 101.5 36.5t62.5 118.5l18 60zM420 1210l143 308h252l-180 -308h-215z" />
<glyph unicode="&#xfe;" horiz-adv-x="1200" d="M154 -385v1839h258v-469q105 105 276 105q192 0 305 -145.5t113 -407.5t-113 -409.5t-305 -147.5q-180 0 -276 110v-475h-258zM412 301q32 -39 82 -65.5t106 -26.5q114 0 179 86t65 237q0 154 -65 241t-179 87q-57 0 -107.5 -27t-80.5 -67v-465z" />
<glyph unicode="&#xff;" horiz-adv-x="1060" d="M18 1071h285l240 -784l231 784h262l-401 -1157q-27 -80 -57.5 -136t-73.5 -99t-102 -64t-136 -21q-57 0 -113 17.5t-94 42.5l37 196q75 -40 152 -40q64 0 101.5 36.5t62.5 118.5l18 60zM180 1370q0 129 139 129q138 0 138 -129q0 -65 -36.5 -96t-101.5 -31 q-139 0 -139 127zM629 1370q0 129 139 129q135 0 135 -129q0 -65 -36 -96t-99 -31q-139 0 -139 127z" />
<glyph unicode="&#x152;" horiz-adv-x="2054" d="M109 692q0 203 77.5 367.5t214.5 258t308 93.5q164 0 292 -92v74h943v-232h-695v-340h566v-211h-566v-381h693v-229h-941v72q-138 -95 -292 -95q-170 0 -307.5 93t-215 256.5t-77.5 365.5zM358 692q0 -201 104 -335t265 -134q83 0 155 33.5t119 93.5v688 q-102 127 -276 127q-160 0 -263.5 -134.5t-103.5 -338.5z" />
<glyph unicode="&#x153;" horiz-adv-x="1884" d="M92 532q0 265 130.5 416.5t352.5 151.5q142 0 250 -68t162 -190q54 120 156 189t237 69q203 0 305.5 -123t102.5 -324q0 -94 -23 -200h-618q2 -112 66.5 -186t197.5 -74q141 0 279 114l88 -198q-161 -138 -383 -138q-304 0 -412 248q-54 -118 -161 -183t-247 -65 q-222 0 -352.5 149t-130.5 412zM340 532q0 -156 65.5 -239.5t174.5 -83.5q111 0 176 83.5t65 239.5q0 159 -65 243.5t-176 84.5q-109 0 -174.5 -85t-65.5 -243zM1163 653h373q4 18 4 52q0 75 -45.5 124.5t-124.5 49.5q-184 0 -207 -226z" />
<glyph unicode="&#x178;" horiz-adv-x="1206" d="M14 1374v19h289l301 -594l301 594h287v-19l-461 -815v-559h-256v557zM242 1692q0 129 139 129q137 0 137 -129q0 -127 -137 -127q-139 0 -139 127zM690 1692q0 129 139 129q136 0 136 -129q0 -65 -36.5 -96t-99.5 -31q-139 0 -139 127z" />
<glyph unicode="&#x2c6;" d="M217 1210l178 308h252l178 -308h-192l-111 179l-112 -179h-193z" />
<glyph unicode="&#x2dc;" d="M190 1341q28 70 82.5 119t116.5 49q42 0 82 -19.5t65 -43t57.5 -43t61.5 -19.5q77 0 119 93l78 -103q-76 -168 -199 -168q-39 0 -79.5 19t-67.5 42.5t-59 42.5t-58 19q-74 0 -123 -92z" />
<glyph unicode="&#x2000;" horiz-adv-x="919" />
<glyph unicode="&#x2001;" horiz-adv-x="1839" />
<glyph unicode="&#x2002;" horiz-adv-x="919" />
<glyph unicode="&#x2003;" horiz-adv-x="1839" />
<glyph unicode="&#x2004;" horiz-adv-x="613" />
<glyph unicode="&#x2005;" horiz-adv-x="459" />
<glyph unicode="&#x2006;" horiz-adv-x="306" />
<glyph unicode="&#x2007;" horiz-adv-x="306" />
<glyph unicode="&#x2008;" horiz-adv-x="229" />
<glyph unicode="&#x2009;" horiz-adv-x="367" />
<glyph unicode="&#x200a;" horiz-adv-x="102" />
<glyph unicode="&#x2010;" horiz-adv-x="985" d="M141 516v207h703v-207h-703z" />
<glyph unicode="&#x2011;" horiz-adv-x="985" d="M141 516v207h703v-207h-703z" />
<glyph unicode="&#x2012;" horiz-adv-x="985" d="M141 516v207h703v-207h-703z" />
<glyph unicode="&#x2013;" horiz-adv-x="1155" d="M141 516v207h873v-207h-873z" />
<glyph unicode="&#x2014;" horiz-adv-x="1589" d="M141 516v207h1307v-207h-1307z" />
<glyph unicode="&#x2018;" horiz-adv-x="534" d="M109 930q0 103 45.5 249.5t95.5 233.5l143 -61l-74 -267q101 -27 101 -155q0 -80 -40.5 -124t-115.5 -44q-73 0 -114 45.5t-41 122.5z" />
<glyph unicode="&#x2019;" horiz-adv-x="528" d="M117 1239q0 82 39.5 126t113.5 44q73 0 115.5 -46.5t42.5 -123.5q0 -102 -46.5 -247t-96.5 -234l-144 59l76 270q-100 24 -100 152z" />
<glyph unicode="&#x201a;" horiz-adv-x="542" d="M115 129q0 82 39.5 126t113.5 44q73 0 115.5 -46.5t42.5 -123.5q0 -102 -46.5 -247t-96.5 -234l-144 59l76 270q-100 24 -100 152z" />
<glyph unicode="&#x201c;" horiz-adv-x="882" d="M109 973q0 92 42 226t87 214l124 -51l-69 -254q90 -21 90 -135q0 -73 -34.5 -112.5t-100.5 -39.5q-65 0 -102 41.5t-37 110.5zM496 973q0 92 41.5 225.5t85.5 214.5l125 -51l-70 -254q45 -10 68.5 -45.5t23.5 -89.5q0 -72 -35.5 -112t-99.5 -40q-66 0 -102.5 41.5 t-36.5 110.5z" />
<glyph unicode="&#x201d;" horiz-adv-x="878" d="M115 1262q0 71 35.5 110t101.5 39q64 0 100.5 -41t36.5 -108q0 -95 -41.5 -231t-85.5 -212l-125 53l68 250q-44 12 -67 48.5t-23 91.5zM500 1262q0 70 36 109.5t99 39.5q65 0 103 -41t38 -108q0 -94 -42 -230t-87 -213l-123 53l66 250q-44 12 -67 48.5t-23 91.5z" />
<glyph unicode="&#x201e;" horiz-adv-x="888" d="M115 88q0 73 35 113.5t102 40.5q64 0 100.5 -42t36.5 -112q0 -94 -41 -227.5t-86 -212.5l-125 51l68 254q-43 9 -66.5 45t-23.5 90zM500 88q0 72 35.5 113t99.5 41q65 0 102 -42t37 -112q0 -94 -41 -227.5t-86 -212.5l-125 51l70 254q-92 18 -92 135z" />
<glyph unicode="&#x2022;" horiz-adv-x="675" d="M119 618q0 115 57.5 178.5t161.5 63.5q103 0 161 -63.5t58 -178.5q0 -116 -57.5 -178.5t-161.5 -62.5q-105 0 -162 62.5t-57 178.5z" />
<glyph unicode="&#x2026;" horiz-adv-x="1443" d="M117 121q0 73 37.5 113t105.5 40q71 0 110.5 -40t39.5 -113t-39.5 -112.5t-110.5 -39.5q-68 0 -105.5 39.5t-37.5 112.5zM578 121q0 74 37 113.5t106 39.5t108 -40t39 -113t-38.5 -112.5t-108.5 -39.5q-69 0 -106 39.5t-37 112.5zM1038 121q0 73 37.5 113t106.5 40 t107 -40t38 -113t-38 -112.5t-107 -39.5t-106.5 39.5t-37.5 112.5z" />
<glyph unicode="&#x202f;" horiz-adv-x="367" />
<glyph unicode="&#x2039;" horiz-adv-x="604" d="M94 592v51l281 418h18l94 -53l-180 -390l180 -389l-94 -53h-18z" />
<glyph unicode="&#x203a;" horiz-adv-x="604" d="M117 227l180 391l-180 388l94 55h18l281 -418v-51l-281 -416h-18z" />
<glyph unicode="&#x205f;" horiz-adv-x="459" />
<glyph unicode="&#x20ac;" d="M53 469v158h82q-2 25 -2 75v33h-80v160h92q36 252 164 385t326 133q216 0 354 -135l-88 -207q-98 103 -237 103q-201 0 -252 -279h401l-59 -160h-357v-33q0 -50 2 -75h324l-51 -158h-252q28 -123 90 -186.5t154 -63.5q66 0 116.5 20t102.5 62l94 -207 q-157 -114 -348 -114q-185 0 -309.5 127.5t-167.5 361.5h-99z" />
<glyph unicode="&#x2122;" horiz-adv-x="1501" d="M137 1214v144h455v-144h-158v-483h-137v483h-160zM719 731v627h123l184 -262l184 262h121v-627h-137v375l-156 -215h-26l-154 215v-375h-139z" />
<glyph unicode="&#x25fc;" horiz-adv-x="1075" d="M0 0v1075h1075v-1075h-1075z" />
<glyph unicode="&#xfb01;" horiz-adv-x="1421" d="M66 813v205h163v96q0 361 322 361q132 0 231 -56l-57 -227q-64 51 -131 51q-107 0 -107 -119v-106h267v-205h-267v-813h-258v813h-163zM922 1374q0 133 155 133q146 0 146 -133q0 -135 -146 -135q-155 0 -155 135zM946 219v852h258v-782q0 -47 14.5 -67.5t47.5 -20.5 q36 0 88 32l10 -206q-81 -47 -195 -47q-115 0 -169 56.5t-54 182.5z" />
<glyph unicode="&#xfb02;" horiz-adv-x="1423" d="M66 813v205h163v96q0 361 322 361q132 0 231 -56l-57 -227q-64 51 -131 51q-107 0 -107 -119v-106h267v-205h-267v-813h-258v813h-163zM942 236v1218h258v-1149q0 -58 18.5 -81t57.5 -23q44 0 98 32l10 -206q-92 -47 -206 -47q-120 0 -178 60t-58 196z" />
</font>
</defs>
</svg>
